<svg xmlns="http://www.w3.org/2000/svg" viewBox="0 0 448 512"><path style="fill:#ff00ff" id="path2" d="m 435.5,433.5 c -0.5,8.2 -6.5,13.8 -13.9,18.3 -14.9,9 -37.3,15.8 -50.9,32.2 l -2.6,-2.2 2.6,2.2 c -14.2,16.9 -31.7,26.6 -48.3,27.9 -16.5,1.3 -32,-6.3 -40.3,-23 v -0.1 c -1.1,-2.1 -1.9,-4.4 -2.5,-6.7 -21.5,1.2 -40.2,-5.3 -55.1,-4.1 -22,1.2 -35.8,6.5 -48.3,6.6 -4.8,10.6 -14.3,17.6 -25.9,20.2 -16,3.7 -36.1,0 -55.9,-10.4 l 1.6,-3 -1.6,3 c -18.5,-9.8 -42,-8.9 -59.3,-12.5 -8.7,-1.8 -16.3,-5 -20.1,-12.3 -3.7,-7.3 -3,-17.3 2.2,-31.7 1.7,-5.1 0.4,-12.7 -0.8,-20.8 -0.6,-3.9 -1.2,-7.9 -1.2,-11.8 0,-4.3 0.7,-8.5 2.8,-12.4 4.5,-8.5 11.8,-12.1 18.5,-14.5 6.7,-2.4 12.8,-4 17,-8.3 5.2,-5.5 10.1,-14.4 16.6,-20.2 -2.6,-17.2 0.2,-35.4 6.2,-53.3 12.6,-37.9 39.2,-74.2 58.1,-96.7 16.1,-22.9 20.8,-41.3 22.5,-64.7 C 158,103.4 132.4,-0.2 234.8,0 c 80.9,0.1 76.3,85.4 75.8,131.3 -0.3,30.1 16.3,50.5 33.4,72 15.2,18 35.1,44.3 46.5,74.4 9.3,24.6 12.9,51.8 3.7,79.1 1.4,0.5 2.8,1.2 4.1,2 1.4,0.8 2.7,1.8 4,2.9 6.6,5.6 8.7,14.3 10.5,22.4 1.9,8.1 3.6,15.7 7.2,19.7 11.1,12.4 15.9,21.5 15.5,29.7 z" /></svg>